<?xml version="1.0" encoding="UTF-8"?>
<!DOCTYPE svg PUBLIC "-//W3C//DTD SVG 1.1//EN" "http://www.w3.org/Graphics/SVG/1.1/DTD/svg11.dtd">
<!-- Creator: CorelDRAW X7 -->
<svg xmlns="http://www.w3.org/2000/svg" xml:space="preserve" width="95.9615mm" height="95.9615mm" version="1.1" style="shape-rendering:geometricPrecision; text-rendering:geometricPrecision; image-rendering:optimizeQuality; fill-rule:evenodd; clip-rule:evenodd"
viewBox="0 0 4730 4730"
 xmlns:xlink="http://www.w3.org/1999/xlink">
 <defs>
  <style type="text/css">
   <![CDATA[
    .fil3 {fill:none}
    .fil2 {fill:#2B2A29}
    .fil1 {fill:#2B2A29}
    .fil0 {fill:#2B2A29}
   ]]>
  </style>
 </defs>
 <g id="Layer_x0020_1">
  <metadata id="CorelCorpID_0Corel-Layer"/>
  <g id="_317191840">
   <g>
    <g>
     <path class="fil0" d="M2888 940l-123 -121c71,24 143,53 214,83 -30,12 -60,25 -91,38zm677 666l-419 -412c54,-20 109,-40 165,-58l411 404 0 1858c0,275 -225,500 -500,500l-1724 0c-275,0 -500,-225 -500,-500l0 -2658c0,-275 225,-499 500,-499l829 0c-162,25 -320,81 -473,135 -20,7 -40,15 -60,22l-296 0c-188,0 -343,154 -343,342l0 2658c0,188 155,342 343,342l1724 0c188,0 343,-154 343,-342l0 -1792z"/>
     <rect class="fil0" x="1337" y="1954" width="1985.34" height="34.945"/>
     <rect class="fil0" x="1337" y="2407" width="1985.34" height="34.945"/>
     <rect class="fil0" x="1337" y="2873" width="1985.34" height="34.945"/>
     <rect class="fil0" x="1337" y="3328" width="1985.34" height="34.945"/>
     <rect class="fil0" x="1337" y="1499" width="1985.34" height="34.945"/>
     <path class="fil1" d="M1375 973c370,51 746,290 1119,290 373,0 749,-239 1119,-290 23,-3 35,-37 35,-71 0,-34 -12,-67 -35,-70 -370,-51 -746,-290 -1119,-290 -373,0 -749,239 -1119,290 -23,3 -35,36 -35,70 0,34 12,68 35,71zm1259 -276c23,34 36,74 36,118 0,118 -96,214 -214,214 -119,0 -215,-96 -215,-214 0,-35 9,-67 23,-96 -159,45 -319,125 -478,183 236,88 472,220 708,220 236,0 472,-132 708,-220 -189,-69 -378,-168 -568,-205zm-1259 -96c370,-51 746,-290 1119,-290 373,0 749,239 1119,290 45,7 46,131 3,141 -163,-24 -326,-85 -480,-141 -205,-73 -420,-149 -641,-149l-1 0 -1 0c-221,0 -436,76 -641,149 -154,55 -317,117 -480,141 -43,-10 -42,-135 3,-141z"/>
    </g>
    <path class="fil2" d="M1000 4278l69 -7c4,23 13,40 25,51 13,11 30,17 52,17 23,0 40,-5 52,-15 11,-10 17,-21 17,-34 0,-8 -2,-15 -7,-21 -5,-6 -14,-11 -26,-16 -8,-2 -27,-8 -57,-15 -38,-10 -64,-21 -80,-35 -21,-20 -32,-43 -32,-71 0,-18 5,-35 15,-51 10,-16 25,-28 44,-36 19,-8 42,-12 69,-12 45,0 78,10 100,29 22,20 34,46 35,79l-71 2c-3,-18 -10,-31 -20,-39 -10,-8 -25,-12 -45,-12 -20,0 -36,4 -48,13 -7,5 -11,13 -11,22 0,8 3,15 11,21 9,8 30,16 65,24 35,8 60,17 77,25 16,9 29,21 39,36 9,16 14,34 14,57 0,20 -6,39 -17,57 -11,17 -27,30 -48,39 -20,9 -46,13 -77,13 -44,0 -79,-10 -103,-31 -24,-21 -38,-51 -42,-90zm345 -142l63 0 0 38c8,-13 19,-23 33,-31 14,-8 30,-12 47,-12 29,0 55,12 75,35 21,23 32,56 32,97 0,43 -11,76 -32,100 -21,24 -46,36 -76,36 -14,0 -27,-3 -38,-9 -12,-5 -24,-15 -37,-28l0 128 -67 0 0 -354zm67 124c0,29 5,51 17,64 11,14 25,21 41,21 16,0 29,-6 39,-19 11,-13 16,-33 16,-62 0,-27 -5,-47 -16,-60 -11,-13 -24,-20 -40,-20 -17,0 -30,7 -41,19 -11,13 -16,32 -16,57zm303 -221l0 131c22,-26 48,-39 79,-39 15,0 29,3 42,9 13,5 22,13 28,22 7,9 11,19 14,30 2,11 3,28 3,50l0 150 -68 0 0 -135c0,-26 -1,-43 -3,-51 -3,-7 -8,-13 -14,-17 -7,-4 -15,-6 -25,-6 -11,0 -21,2 -30,8 -9,5 -16,14 -20,25 -4,11 -6,27 -6,48l0 128 -68 0 0 -353 68 0zm235 63l0 -63 67 0 0 63 -67 0zm0 290l0 -256 67 0 0 256 -67 0zm370 0l-68 0 0 -130c0,-28 -2,-46 -4,-54 -3,-8 -8,-14 -15,-18 -6,-5 -14,-7 -23,-7 -12,0 -23,3 -32,9 -10,7 -16,15 -19,26 -4,10 -6,30 -6,59l0 115 -67 0 0 -256 62 0 0 38c23,-29 51,-43 85,-43 15,0 29,3 41,8 13,5 22,12 28,21 7,8 11,17 14,28 2,11 4,26 4,45l0 159zm35 0l92 -131 -88 -125 83 0 45 71 48 -71 79 0 -87 122 95 134 -82 0 -53 -79 -53 79 -79 0zm310 0l0 -353 122 0c27,0 48,2 62,5 21,5 38,13 52,26 19,15 33,35 42,60 9,24 14,52 14,84 0,27 -3,50 -9,71 -7,21 -15,38 -25,52 -9,13 -20,24 -32,32 -11,7 -25,13 -42,17 -16,4 -35,6 -57,6l-127 0zm47 -41l75 0c23,0 42,-2 55,-7 13,-4 24,-10 31,-18 11,-11 20,-26 26,-45 6,-18 10,-41 10,-68 0,-37 -7,-65 -19,-85 -12,-20 -26,-33 -44,-40 -12,-5 -32,-7 -60,-7l-74 0 0 270zm287 -87c0,-47 14,-82 40,-105 22,-19 49,-28 80,-28 36,0 64,11 87,34 22,23 33,55 33,96 0,33 -5,59 -15,77 -9,19 -24,34 -43,44 -19,11 -39,16 -62,16 -35,0 -64,-12 -86,-35 -23,-22 -34,-56 -34,-99zm45 0c0,33 7,58 21,74 15,16 33,24 54,24 22,0 40,-8 54,-24 15,-17 22,-41 22,-75 0,-31 -7,-55 -22,-72 -14,-16 -32,-24 -54,-24 -21,0 -39,8 -54,24 -14,16 -21,41 -21,73zm413 35l43 6c-5,29 -17,52 -36,68 -19,17 -43,25 -71,25 -34,0 -63,-12 -84,-34 -21,-23 -32,-56 -32,-99 0,-27 5,-51 14,-72 9,-21 23,-36 42,-47 18,-10 39,-15 61,-15 28,0 50,7 68,21 18,14 29,34 34,60l-42 6c-4,-17 -11,-30 -21,-39 -11,-8 -23,-13 -37,-13 -22,0 -40,8 -54,24 -13,16 -20,40 -20,74 0,35 6,59 19,75 14,16 31,23 52,23 17,0 31,-5 43,-15 11,-11 18,-27 21,-48zm63 17l42 -7c3,17 10,30 21,40 11,9 26,13 46,13 20,0 35,-4 44,-12 10,-8 15,-17 15,-28 0,-10 -5,-18 -13,-23 -6,-4 -21,-9 -45,-15 -31,-8 -53,-15 -66,-21 -12,-6 -21,-14 -28,-24 -6,-11 -9,-22 -9,-34 0,-12 3,-22 8,-32 5,-10 12,-18 21,-24 7,-5 16,-9 28,-13 11,-3 24,-5 37,-5 20,0 38,3 53,9 15,5 26,13 33,23 8,10 13,23 15,40l-42 6c-2,-13 -8,-24 -17,-31 -9,-8 -22,-12 -39,-12 -20,0 -34,4 -42,10 -9,7 -13,15 -13,23 0,6 2,11 5,16 4,4 9,8 17,11 4,2 17,6 38,11 31,8 52,15 64,20 12,6 22,13 29,23 7,10 10,22 10,37 0,15 -4,28 -13,41 -8,13 -20,22 -36,29 -16,7 -34,11 -54,11 -33,0 -59,-7 -76,-21 -18,-14 -29,-34 -33,-61z"/>
   </g>
   <rect class="fil3" width="4730" height="4730"/>
  </g>
 </g>
</svg>
