<?xml version="1.0" encoding="UTF-8"?>
<!DOCTYPE svg PUBLIC "-//W3C//DTD SVG 1.1//EN" "http://www.w3.org/Graphics/SVG/1.1/DTD/svg11.dtd">
<!-- Creator: CorelDRAW X7 -->
<svg xmlns="http://www.w3.org/2000/svg" xml:space="preserve" width="203.074mm" height="86.4293mm" version="1.1" style="shape-rendering:geometricPrecision; text-rendering:geometricPrecision; image-rendering:optimizeQuality; fill-rule:evenodd; clip-rule:evenodd"
viewBox="0 0 33131 14101"
 xmlns:xlink="http://www.w3.org/1999/xlink">
 <defs>
  <style type="text/css">
   <![CDATA[
    .fil3 {fill:none}
    .fil2 {fill:#2B2A29}
    .fil1 {fill:#2B2A29}
    .fil0 {fill:#2B2A29}
   ]]>
  </style>
 </defs>
 <g id="Layer_x0020_1">
  <metadata id="CorelCorpID_0Corel-Layer"/>
  <g id="_316551088">
   <g>
    <g>
     <path class="fil0" d="M7521 3313l-409 -402c239,80 476,178 710,277 -97,41 -198,83 -301,125zm2239 2204l-1386 -1364c180,-64 362,-131 547,-193l1360 1339 0 6150c0,910 -744,1653 -1653,1653l-5709 0c-909,0 -1653,-743 -1653,-1653l0 -8797c0,-910 744,-1653 1653,-1653l2745 0c-536,82 -1060,267 -1564,448 -67,24 -134,48 -201,72l-980 0c-622,0 -1132,510 -1132,1133l0 8797c0,623 510,1133 1132,1133l5709 0c622,0 1132,-510 1132,-1133l0 -5932z"/>
     <rect class="fil0" x="2388" y="6669" width="6571" height="116"/>
     <rect class="fil0" x="2388" y="8168" width="6571" height="116"/>
     <rect class="fil0" x="2388" y="9710" width="6571" height="116"/>
     <rect class="fil0" x="2388" y="11218" width="6571" height="116"/>
     <rect class="fil0" x="2388" y="5163" width="6571" height="116"/>
     <path class="fil1" d="M2514 3422c1223,170 2469,961 3703,961 1234,0 2480,-791 3703,-961 77,-8 116,-121 116,-233 0,-113 -39,-225 -116,-234 -1223,-170 -2469,-960 -3703,-960 -1234,0 -2480,791 -3703,960 -77,9 -116,121 -115,234 -1,112 38,225 115,233zm4168 -913c74,112 117,246 117,390 0,391 -317,709 -709,709 -391,0 -709,-318 -709,-709 0,-115 28,-223 76,-319 -528,151 -1056,414 -1583,609 780,288 1563,727 2343,727 780,0 1563,-439 2344,-727 -626,-231 -1253,-559 -1879,-680zm-4168 -317c1223,-170 2469,-961 3703,-961 1234,0 2480,791 3703,961 151,21 154,432 9,465 -539,-80 -1077,-282 -1588,-465 -678,-243 -1391,-493 -2119,-494l-5 0 -5 0c-728,1 -1440,251 -2119,494 -510,183 -1049,385 -1588,465 -145,-33 -141,-444 9,-465z"/>
    </g>
    <path class="fil2" d="M12190 8286l500 -50c31,168 91,290 183,369 92,79 215,118 371,118 165,0 289,-35 372,-105 84,-70 126,-152 126,-245 0,-60 -18,-111 -53,-154 -35,-42 -96,-79 -184,-110 -60,-21 -196,-58 -409,-111 -274,-69 -467,-153 -577,-253 -156,-140 -234,-311 -234,-513 0,-130 37,-252 110,-365 73,-113 179,-199 317,-258 138,-59 303,-89 499,-89 318,0 558,71 718,212 161,142 245,330 253,566l-515 18c-22,-131 -68,-225 -140,-283 -72,-57 -179,-86 -323,-86 -148,0 -264,30 -347,92 -54,40 -81,92 -81,159 0,60 25,112 76,154 65,55 221,112 471,171 249,59 433,121 552,183 120,64 213,149 281,259 67,110 101,245 101,405 0,146 -40,282 -121,410 -82,127 -196,222 -344,283 -148,62 -333,93 -553,93 -322,0 -569,-74 -741,-222 -172,-148 -275,-365 -308,-648zm2486 -1020l455 0 0 271c59,-92 138,-167 239,-224 101,-57 213,-86 335,-86 214,0 396,84 545,253 149,167 224,402 224,701 0,309 -76,548 -226,719 -150,171 -333,256 -547,256 -102,0 -194,-20 -277,-61 -82,-40 -170,-109 -261,-208l0 923 -487 0 0 -2544zm480 894c0,208 41,361 123,460 82,99 182,149 299,149 113,0 207,-46 282,-137 75,-91 113,-240 113,-448 0,-194 -39,-338 -116,-432 -77,-94 -173,-141 -288,-141 -119,0 -217,46 -296,138 -78,93 -117,230 -117,411zm2184 -1593l0 942c158,-188 347,-282 567,-282 113,0 215,21 305,62 91,43 159,95 205,160 46,65 78,137 94,215 18,79 26,201 26,366l0 1080 -487 0 0 -972c0,-193 -9,-316 -28,-368 -19,-52 -52,-93 -99,-124 -48,-30 -107,-46 -178,-46 -82,0 -155,20 -219,60 -65,39 -112,98 -141,177 -31,79 -45,196 -45,351l0 922 -487 0 0 -2543 487 0zm1690 451l0 -451 487 0 0 451 -487 0zm0 2092l0 -1844 487 0 0 1844 -487 0zm2664 0l-487 0 0 -940c0,-198 -11,-327 -31,-385 -22,-59 -56,-104 -103,-136 -47,-33 -104,-49 -170,-49 -86,0 -162,23 -230,70 -68,46 -114,107 -139,183 -25,76 -38,217 -38,423l0 834 -486 0 0 -1844 451 0 0 271c162,-207 365,-310 610,-310 108,0 207,20 296,58 90,39 158,89 203,148 47,61 79,129 96,205 19,77 28,186 28,328l0 1144zm257 0l664 -950 -636 -894 594 0 326 507 346 -507 570 0 -624 874 681 970 -594 0 -379 -571 -378 571 -570 0zm2229 0l0 -2543 876 0c198,0 349,11 453,36 146,33 270,94 373,182 135,114 235,258 301,435 67,176 100,378 100,605 0,193 -22,364 -67,513 -45,149 -103,273 -174,371 -71,97 -148,174 -232,230 -83,56 -185,99 -303,128 -119,29 -255,43 -409,43l-918 0zm338 -298l542 0c167,0 299,-16 394,-47 96,-32 171,-75 228,-132 79,-80 142,-188 186,-323 44,-135 67,-298 67,-491 0,-266 -44,-471 -131,-614 -87,-143 -193,-239 -318,-288 -90,-35 -235,-52 -435,-52l-533 0 0 1947zm2071 -624c0,-340 95,-592 285,-756 158,-137 352,-205 580,-205 252,0 460,83 621,249 160,165 241,394 241,686 0,237 -36,423 -107,558 -71,136 -175,241 -311,317 -135,75 -284,112 -444,112 -259,0 -467,-82 -626,-247 -159,-166 -239,-404 -239,-714zm320 1c0,235 51,412 154,528 104,118 234,176 391,176 155,0 284,-58 387,-176 103,-118 155,-297 155,-538 0,-228 -52,-400 -156,-517 -103,-117 -233,-175 -386,-175 -157,0 -287,58 -391,174 -103,117 -154,293 -154,528zm2977 246l306 43c-34,210 -119,374 -257,493 -138,119 -308,178 -509,178 -251,0 -454,-82 -607,-247 -153,-164 -229,-400 -229,-707 0,-199 33,-372 99,-521 65,-149 165,-261 300,-335 135,-74 281,-112 440,-112 199,0 363,51 490,152 127,101 209,245 244,431l-302 46c-29,-124 -80,-217 -154,-279 -73,-63 -162,-94 -266,-94 -157,0 -285,56 -384,169 -98,113 -148,291 -148,534 0,248 48,427 142,539 96,112 220,168 372,168 123,0 225,-37 307,-112 82,-75 134,-190 156,-346zm448 124l309 -49c17,123 66,218 145,284 79,66 191,99 333,99 144,0 250,-29 320,-87 69,-58 104,-127 104,-206 0,-70 -31,-126 -93,-166 -44,-28 -151,-63 -320,-106 -229,-58 -387,-107 -476,-149 -88,-43 -155,-101 -200,-176 -46,-74 -69,-156 -69,-246 0,-82 19,-158 56,-228 38,-70 89,-128 154,-174 48,-35 115,-66 198,-90 84,-25 173,-38 269,-38 145,0 272,21 380,63 110,42 191,98 243,169 51,72 87,167 107,287l-306 43c-13,-96 -54,-172 -120,-225 -66,-54 -160,-81 -281,-81 -143,0 -245,24 -306,71 -61,47 -92,103 -92,166 0,41 12,77 38,110 25,33 65,61 120,83 31,12 122,38 275,80 220,58 374,107 462,144 87,38 156,93 206,164 50,71 75,160 75,267 0,103 -30,201 -91,293 -61,92 -149,163 -263,213 -115,50 -245,75 -389,75 -239,0 -422,-50 -548,-149 -125,-99 -205,-246 -240,-441z"/>
   </g>
   <rect class="fil3" width="33131" height="14101"/>
  </g>
 </g>
</svg>
